<svg xmlns="http://www.w3.org/2000/svg" xmlns:xlink="http://www.w3.org/1999/xlink" width="500" zoomAndPan="magnify" viewBox="0 0 375 374.999991" height="500" preserveAspectRatio="xMidYMid meet" version="1.2"><defs><clipPath id="185da1c71b"><path d="M 0 86.023438 L 375 86.023438 L 375 288.976562 L 0 288.976562 Z M 0 86.023438 "/></clipPath><clipPath id="68cd2352f9"><path d="M 17.25 86.023438 L 357.75 86.023438 C 362.324219 86.023438 366.710938 87.839844 369.949219 91.074219 C 373.183594 94.308594 375 98.695312 375 103.273438 L 375 271.726562 C 375 276.304688 373.183594 280.691406 369.949219 283.925781 C 366.710938 287.160156 362.324219 288.976562 357.75 288.976562 L 17.25 288.976562 C 12.675781 288.976562 8.289062 287.160156 5.050781 283.925781 C 1.816406 280.691406 0 276.304688 0 271.726562 L 0 103.273438 C 0 98.695312 1.816406 94.308594 5.050781 91.074219 C 8.289062 87.839844 12.675781 86.023438 17.25 86.023438 Z M 17.25 86.023438 "/></clipPath><clipPath id="cb89f81667"><path d="M 0 0.0234375 L 375 0.0234375 L 375 202.976562 L 0 202.976562 Z M 0 0.0234375 "/></clipPath><clipPath id="1a12a46e6b"><path d="M 17.25 0.0234375 L 357.75 0.0234375 C 362.324219 0.0234375 366.710938 1.839844 369.949219 5.074219 C 373.183594 8.308594 375 12.695312 375 17.273438 L 375 185.726562 C 375 190.304688 373.183594 194.691406 369.949219 197.925781 C 366.710938 201.160156 362.324219 202.976562 357.75 202.976562 L 17.25 202.976562 C 12.675781 202.976562 8.289062 201.160156 5.050781 197.925781 C 1.816406 194.691406 0 190.304688 0 185.726562 L 0 17.273438 C 0 12.695312 1.816406 8.308594 5.050781 5.074219 C 8.289062 1.839844 12.675781 0.0234375 17.25 0.0234375 Z M 17.25 0.0234375 "/></clipPath><clipPath id="8604732028"><rect x="0" width="375" y="0" height="203"/></clipPath><clipPath id="17fb7b6482"><path d="M 0.0117188 86.023438 L 375 86.023438 L 375 289 L 0.0117188 289 Z M 0.0117188 86.023438 "/></clipPath><clipPath id="d401ff7c11"><path d="M 17.257812 86.023438 L 357.742188 86.023438 C 362.316406 86.023438 366.703125 87.839844 369.9375 91.074219 C 373.171875 94.308594 374.988281 98.695312 374.988281 103.269531 L 374.988281 271.71875 C 374.988281 276.292969 373.171875 280.679688 369.9375 283.914062 C 366.703125 287.148438 362.316406 288.96875 357.742188 288.96875 L 17.257812 288.96875 C 12.683594 288.96875 8.296875 287.148438 5.0625 283.914062 C 1.828125 280.679688 0.0117188 276.292969 0.0117188 271.71875 L 0.0117188 103.269531 C 0.0117188 98.695312 1.828125 94.308594 5.0625 91.074219 C 8.296875 87.839844 12.683594 86.023438 17.257812 86.023438 Z M 17.257812 86.023438 "/></clipPath><clipPath id="43ca4a0bc7"><rect x="0" width="351" y="0" height="110"/></clipPath><clipPath id="22f08921ad"><path d="M 163.851562 124.988281 L 366 124.988281 L 366 250.011719 L 163.851562 250.011719 Z M 163.851562 124.988281 "/></clipPath><clipPath id="9ddd6e8534"><path d="M 179.625 124.988281 L 349.914062 124.988281 C 358.625 124.988281 365.6875 132.050781 365.6875 140.761719 L 365.6875 234.238281 C 365.6875 242.949219 358.625 250.011719 349.914062 250.011719 L 179.625 250.011719 C 170.914062 250.011719 163.851562 242.949219 163.851562 234.238281 L 163.851562 140.761719 C 163.851562 132.050781 170.914062 124.988281 179.625 124.988281 Z M 179.625 124.988281 "/></clipPath><clipPath id="456d75f5ad"><path d="M 0.851562 0.988281 L 202.761719 0.988281 L 202.761719 126.011719 L 0.851562 126.011719 Z M 0.851562 0.988281 "/></clipPath><clipPath id="de78d9d99e"><path d="M 16.625 0.988281 L 186.914062 0.988281 C 195.625 0.988281 202.6875 8.050781 202.6875 16.761719 L 202.6875 110.238281 C 202.6875 118.949219 195.625 126.011719 186.914062 126.011719 L 16.625 126.011719 C 7.914062 126.011719 0.851562 118.949219 0.851562 110.238281 L 0.851562 16.761719 C 0.851562 8.050781 7.914062 0.988281 16.625 0.988281 Z M 16.625 0.988281 "/></clipPath><clipPath id="9dca0acb3f"><rect x="0" width="203" y="0" height="127"/></clipPath><clipPath id="4234c797b4"><path d="M 163.851562 124.988281 L 365.601562 124.988281 L 365.601562 250.238281 L 163.851562 250.238281 Z M 163.851562 124.988281 "/></clipPath><clipPath id="542c33c57e"><path d="M 179.625 124.988281 L 349.90625 124.988281 C 358.621094 124.988281 365.679688 132.050781 365.679688 140.761719 L 365.679688 234.230469 C 365.679688 242.941406 358.621094 250.003906 349.90625 250.003906 L 179.625 250.003906 C 170.914062 250.003906 163.851562 242.941406 163.851562 234.230469 L 163.851562 140.761719 C 163.851562 132.050781 170.914062 124.988281 179.625 124.988281 Z M 179.625 124.988281 "/></clipPath></defs><g id="7c81a28272"><g clip-rule="nonzero" clip-path="url(#185da1c71b)"><g clip-rule="nonzero" clip-path="url(#68cd2352f9)"><g transform="matrix(1,0,0,1,0,86)"><g clip-path="url(#8604732028)"><g clip-rule="nonzero" clip-path="url(#cb89f81667)"><g clip-rule="nonzero" clip-path="url(#1a12a46e6b)"><path style=" stroke:none;fill-rule:nonzero;fill:#f5f5dc;fill-opacity:1;" d="M 0 0.0234375 L 374.992188 0.0234375 L 374.992188 202.976562 L 0 202.976562 Z M 0 0.0234375 "/></g></g></g></g></g></g><g clip-rule="nonzero" clip-path="url(#17fb7b6482)"><g clip-rule="nonzero" clip-path="url(#d401ff7c11)"><path style="fill:none;stroke-width:8;stroke-linecap:butt;stroke-linejoin:miter;stroke:#000000;stroke-opacity:1;stroke-miterlimit:4;" d="M 22.996689 0.0022218 L 476.975886 0.0022218 C 483.074845 0.0022218 488.923803 2.424097 493.236304 6.736597 C 497.548804 11.049098 499.970679 16.898056 499.970679 22.997015 L 499.970679 247.595988 C 499.970679 253.694947 497.548804 259.543906 493.236304 263.856406 C 488.923803 268.168906 483.074845 270.59599 476.975886 270.59599 L 22.996689 270.59599 C 16.897731 270.59599 11.048772 268.168906 6.736272 263.856406 C 2.423771 259.543906 0.00189622 253.694947 0.00189622 247.595988 L 0.00189622 22.997015 C 0.00189622 16.898056 2.423771 11.049098 6.736272 6.736597 C 11.048772 2.424097 16.897731 0.0022218 22.996689 0.0022218 Z M 22.996689 0.0022218 " transform="matrix(0.75,0,0,0.75,0.0102966,86.021771)"/></g></g><g transform="matrix(1,0,0,1,12,141)"><g clip-path="url(#43ca4a0bc7)"><g style="fill:#000000;fill-opacity:1;"><g transform="translate(1.693732, 80.969787)"><path style="stroke:none" d="M 4.375 -76.484375 L 16.390625 -76.484375 L 16.390625 0 L 4.375 0 Z M 4.375 -76.484375 "/></g></g><g style="fill:#000000;fill-opacity:1;"><g transform="translate(22.454498, 80.969787)"><path style="stroke:none" d="M 15.078125 -55.390625 L 15.078125 0 L 4.265625 0 L 4.265625 -76.484375 L 19.34375 -76.484375 L 31.6875 -30.703125 L 31.6875 -76.484375 L 42.390625 -76.484375 L 42.390625 0 L 30.046875 0 Z M 15.078125 -55.390625 "/></g></g><g style="fill:#000000;fill-opacity:1;"><g transform="translate(69.1116, 80.969787)"><path style="stroke:none" d="M 16.390625 -42.5 L 31.90625 -42.5 L 31.90625 -31.578125 L 16.390625 -31.578125 L 16.390625 0 L 4.375 0 L 4.375 -76.484375 L 36.171875 -76.484375 L 36.171875 -65.5625 L 16.390625 -65.5625 Z M 16.390625 -42.5 "/></g></g><g style="fill:#000000;fill-opacity:1;"><g transform="translate(106.699531, 80.969787)"><path style="stroke:none" d="M 15.40625 -17.59375 C 15.40625 -14.820312 15.96875 -12.867188 17.09375 -11.734375 C 18.226562 -10.609375 19.742188 -10.046875 21.640625 -10.046875 C 23.523438 -10.046875 25.03125 -10.609375 26.15625 -11.734375 C 27.289062 -12.867188 27.859375 -14.820312 27.859375 -17.59375 L 27.859375 -58.890625 C 27.859375 -61.660156 27.289062 -63.609375 26.15625 -64.734375 C 25.03125 -65.867188 23.523438 -66.4375 21.640625 -66.4375 C 19.742188 -66.4375 18.226562 -65.867188 17.09375 -64.734375 C 15.96875 -63.609375 15.40625 -61.660156 15.40625 -58.890625 Z M 3.390625 -58.125 C 3.390625 -64.320312 4.953125 -69.078125 8.078125 -72.390625 C 11.210938 -75.703125 15.734375 -77.359375 21.640625 -77.359375 C 27.535156 -77.359375 32.046875 -75.703125 35.171875 -72.390625 C 38.304688 -69.078125 39.875 -64.320312 39.875 -58.125 L 39.875 -18.359375 C 39.875 -12.160156 38.304688 -7.40625 35.171875 -4.09375 C 32.046875 -0.78125 27.535156 0.875 21.640625 0.875 C 15.734375 0.875 11.210938 -0.78125 8.078125 -4.09375 C 4.953125 -7.40625 3.390625 -12.160156 3.390625 -18.359375 Z M 3.390625 -58.125 "/></g></g><g style="fill:#000000;fill-opacity:1;"><g transform="translate(149.969354, 80.969787)"><path style="stroke:none" d="M 22.078125 -76.484375 C 28.117188 -76.484375 32.613281 -74.878906 35.5625 -71.671875 C 38.507812 -68.472656 39.984375 -63.773438 39.984375 -57.578125 L 39.984375 -47.640625 C 39.984375 -41.453125 38.507812 -36.753906 35.5625 -33.546875 C 32.613281 -30.335938 28.117188 -28.734375 22.078125 -28.734375 L 16.390625 -28.734375 L 16.390625 0 L 4.375 0 L 4.375 -76.484375 Z M 16.390625 -65.5625 L 16.390625 -39.65625 L 22.078125 -39.65625 C 23.960938 -39.65625 25.414062 -40.164062 26.4375 -41.1875 C 27.457031 -42.207031 27.96875 -44.101562 27.96875 -46.875 L 27.96875 -58.34375 C 27.96875 -61.113281 27.457031 -63.007812 26.4375 -64.03125 C 25.414062 -65.050781 23.960938 -65.5625 22.078125 -65.5625 Z M 16.390625 -65.5625 "/></g></g><g style="fill:#000000;fill-opacity:1;"><g transform="translate(191.735124, 80.969787)"><path style="stroke:none" d=""/></g></g><g style="fill:#000000;fill-opacity:1;"><g transform="translate(208.671528, 80.969787)"><path style="stroke:none" d=""/></g></g><g style="fill:#000000;fill-opacity:1;"><g transform="translate(225.607932, 80.969787)"><path style="stroke:none" d=""/></g></g><g style="fill:#000000;fill-opacity:1;"><g transform="translate(242.544336, 80.969787)"><path style="stroke:none" d=""/></g></g><g style="fill:#000000;fill-opacity:1;"><g transform="translate(259.48074, 80.969787)"><path style="stroke:none" d=""/></g></g><g style="fill:#000000;fill-opacity:1;"><g transform="translate(276.417144, 80.969787)"><path style="stroke:none" d=""/></g></g><g style="fill:#000000;fill-opacity:1;"><g transform="translate(293.353548, 80.969787)"><path style="stroke:none" d=""/></g></g><g style="fill:#000000;fill-opacity:1;"><g transform="translate(310.318904, 80.969787)"><path style="stroke:none" d="M 0.875 -76.484375 L 38.03125 -76.484375 L 38.03125 -65.5625 L 25.453125 -65.5625 L 25.453125 0 L 13.4375 0 L 13.4375 -65.5625 L 0.875 -65.5625 Z M 0.875 -76.484375 "/></g></g></g></g><g clip-rule="nonzero" clip-path="url(#22f08921ad)"><g clip-rule="nonzero" clip-path="url(#9ddd6e8534)"><g transform="matrix(1,0,0,1,163,124)"><g clip-path="url(#9dca0acb3f)"><g clip-rule="nonzero" clip-path="url(#456d75f5ad)"><g clip-rule="nonzero" clip-path="url(#de78d9d99e)"><path style=" stroke:none;fill-rule:nonzero;fill:#de0f3f;fill-opacity:1;" d="M 0.851562 0.988281 L 202.546875 0.988281 L 202.546875 126.011719 L 0.851562 126.011719 Z M 0.851562 0.988281 "/></g></g></g></g></g></g><g clip-rule="nonzero" clip-path="url(#4234c797b4)"><g clip-rule="nonzero" clip-path="url(#542c33c57e)"><path style="fill:none;stroke-width:4;stroke-linecap:butt;stroke-linejoin:miter;stroke:#000000;stroke-opacity:1;stroke-miterlimit:4;" d="M 21.029872 -0.00128979 L 248.071554 -0.00128979 C 259.691346 -0.00128979 269.102805 9.415377 269.102805 21.029962 L 269.102805 145.65497 C 269.102805 157.269554 259.691346 166.686221 248.071554 166.686221 L 21.029872 166.686221 C 9.415288 166.686221 -0.00137925 157.269554 -0.00137925 145.65497 L -0.00137925 21.029962 C -0.00137925 9.415377 9.415288 -0.00128979 21.029872 -0.00128979 Z M 21.029872 -0.00128979 " transform="matrix(0.75,0,0,0.75,163.852597,124.989249)"/></g></g><g style="fill:#000000;fill-opacity:1;"><g transform="translate(174.137191, 224.348378)"><path style="stroke:none" d="M 22.015625 -76.296875 C 28.046875 -76.296875 32.53125 -74.695312 35.46875 -71.5 C 38.414062 -68.300781 39.890625 -63.613281 39.890625 -57.4375 L 39.890625 -47.53125 C 39.890625 -41.351562 38.414062 -36.664062 35.46875 -33.46875 C 32.53125 -30.269531 28.046875 -28.671875 22.015625 -28.671875 L 16.34375 -28.671875 L 16.34375 0 L 4.359375 0 L 4.359375 -76.296875 Z M 16.34375 -65.40625 L 16.34375 -39.5625 L 22.015625 -39.5625 C 23.910156 -39.5625 25.363281 -40.070312 26.375 -41.09375 C 27.394531 -42.113281 27.90625 -44.003906 27.90625 -46.765625 L 27.90625 -58.203125 C 27.90625 -60.960938 27.394531 -62.851562 26.375 -63.875 C 25.363281 -64.894531 23.910156 -65.40625 22.015625 -65.40625 Z M 16.34375 -65.40625 "/></g></g><g style="fill:#000000;fill-opacity:1;"><g transform="translate(215.773679, 224.348378)"><path style="stroke:none" d="M 4.359375 -76.296875 L 16.34375 -76.296875 L 16.34375 0 L 4.359375 0 Z M 4.359375 -76.296875 "/></g></g><g style="fill:#000000;fill-opacity:1;"><g transform="translate(236.482929, 224.348378)"><path style="stroke:none" d="M 4.359375 -76.296875 L 16.34375 -76.296875 L 16.34375 -10.90625 L 36.078125 -10.90625 L 36.078125 0 L 4.359375 0 Z M 4.359375 -76.296875 "/></g></g><g style="fill:#000000;fill-opacity:1;"><g transform="translate(273.43258, 224.348378)"><path style="stroke:none" d="M 15.375 -17.546875 C 15.375 -14.785156 15.9375 -12.84375 17.0625 -11.71875 C 18.1875 -10.59375 19.691406 -10.03125 21.578125 -10.03125 C 23.472656 -10.03125 24.984375 -10.59375 26.109375 -11.71875 C 27.234375 -12.84375 27.796875 -14.785156 27.796875 -17.546875 L 27.796875 -58.75 C 27.796875 -61.507812 27.234375 -63.453125 26.109375 -64.578125 C 24.984375 -65.703125 23.472656 -66.265625 21.578125 -66.265625 C 19.691406 -66.265625 18.1875 -65.703125 17.0625 -64.578125 C 15.9375 -63.453125 15.375 -61.507812 15.375 -58.75 Z M 3.375 -57.984375 C 3.375 -64.160156 4.9375 -68.898438 8.0625 -72.203125 C 11.1875 -75.515625 15.691406 -77.171875 21.578125 -77.171875 C 27.460938 -77.171875 31.96875 -75.515625 35.09375 -72.203125 C 38.21875 -68.898438 39.78125 -64.160156 39.78125 -57.984375 L 39.78125 -18.3125 C 39.78125 -12.132812 38.21875 -7.390625 35.09375 -4.078125 C 31.96875 -0.773438 27.460938 0.875 21.578125 0.875 C 15.691406 0.875 11.1875 -0.773438 8.0625 -4.078125 C 4.9375 -7.390625 3.375 -12.132812 3.375 -18.3125 Z M 3.375 -57.984375 "/></g></g><g style="fill:#000000;fill-opacity:1;"><g transform="translate(316.59501, 224.348378)"><path style="stroke:none" d="M 0.875 -76.296875 L 37.9375 -76.296875 L 37.9375 -65.40625 L 25.390625 -65.40625 L 25.390625 0 L 13.40625 0 L 13.40625 -65.40625 L 0.875 -65.40625 Z M 0.875 -76.296875 "/></g></g></g></svg>